<mxfile host="app.diagrams.net" modified="2023-11-09T23:48:19.584Z" agent="Mozilla/5.0 (Windows NT 10.0; Win64; x64) AppleWebKit/537.36 (KHTML, like Gecko) Chrome/119.0.0.0 Safari/537.36" etag="togbAqMuS1DYIkRGoq3Y" version="22.1.0" type="github">
  <diagram id="C5RBs43oDa-KdzZeNtuy" name="Page-1">
    <mxGraphModel dx="1732" dy="1100" grid="1" gridSize="10" guides="1" tooltips="1" connect="1" arrows="1" fold="1" page="1" pageScale="1" pageWidth="827" pageHeight="1169" math="0" shadow="0">
      <root>
        <mxCell id="WIyWlLk6GJQsqaUBKTNV-0" />
        <mxCell id="WIyWlLk6GJQsqaUBKTNV-1" parent="WIyWlLk6GJQsqaUBKTNV-0" />
        <mxCell id="WIyWlLk6GJQsqaUBKTNV-2" value="" style="rounded=0;html=1;jettySize=auto;orthogonalLoop=1;fontSize=11;endArrow=block;endFill=0;endSize=8;strokeWidth=1;shadow=0;labelBackgroundColor=none;edgeStyle=orthogonalEdgeStyle;" parent="WIyWlLk6GJQsqaUBKTNV-1" source="WIyWlLk6GJQsqaUBKTNV-3" edge="1">
          <mxGeometry relative="1" as="geometry">
            <mxPoint x="380" y="260" as="targetPoint" />
          </mxGeometry>
        </mxCell>
        <mxCell id="WIyWlLk6GJQsqaUBKTNV-3" value="Game Picks work" style="rounded=1;whiteSpace=wrap;html=1;fontSize=12;glass=0;strokeWidth=1;shadow=0;" parent="WIyWlLk6GJQsqaUBKTNV-1" vertex="1">
          <mxGeometry x="320" y="170" width="120" height="40" as="geometry" />
        </mxCell>
        <mxCell id="WIyWlLk6GJQsqaUBKTNV-12" value="Ask User for a Letter" style="rounded=1;whiteSpace=wrap;html=1;fontSize=12;glass=0;strokeWidth=1;shadow=0;" parent="WIyWlLk6GJQsqaUBKTNV-1" vertex="1">
          <mxGeometry x="320" y="350" width="120" height="40" as="geometry" />
        </mxCell>
        <mxCell id="tXQXJnpCCouHHBKuajcF-0" value="Game Functionality:&lt;br&gt;1. Game First needs to decide on the word that will be used&lt;br&gt;&lt;br&gt;2. The game needs to display a hang stand and how many letters are in the word&lt;br&gt;&lt;br&gt;3. The game needs to ask the user to put one letter in at a time&lt;br&gt;&lt;br&gt;4. The game needs to compare the letter to the picked word.&lt;br&gt;&lt;br&gt;5. If the letter matches a letter in the world it needs to be displayed in the word placeholder&lt;br&gt;&lt;br&gt;5a. If the letter does not match one part of the hang man&#39;s body needs to be displayed.&amp;nbsp;&lt;br&gt;&lt;br&gt;6. Steps 5 and 5a need to loop until the player gets the word right or the man gets hanged&lt;br&gt;&lt;br&gt;7. The game must end and display whether the play won or lost" style="whiteSpace=wrap;html=1;" vertex="1" parent="WIyWlLk6GJQsqaUBKTNV-1">
          <mxGeometry x="450" y="740" width="360" height="320" as="geometry" />
        </mxCell>
        <mxCell id="tXQXJnpCCouHHBKuajcF-1" value="Game displays word" style="rounded=1;whiteSpace=wrap;html=1;fontSize=12;glass=0;strokeWidth=1;shadow=0;" vertex="1" parent="WIyWlLk6GJQsqaUBKTNV-1">
          <mxGeometry x="320" y="260" width="120" height="40" as="geometry" />
        </mxCell>
        <mxCell id="tXQXJnpCCouHHBKuajcF-2" value="" style="rounded=0;html=1;jettySize=auto;orthogonalLoop=1;fontSize=11;endArrow=block;endFill=0;endSize=8;strokeWidth=1;shadow=0;labelBackgroundColor=none;edgeStyle=orthogonalEdgeStyle;" edge="1" parent="WIyWlLk6GJQsqaUBKTNV-1">
          <mxGeometry relative="1" as="geometry">
            <mxPoint x="379.5" y="300" as="sourcePoint" />
            <mxPoint x="379.5" y="350" as="targetPoint" />
          </mxGeometry>
        </mxCell>
        <mxCell id="tXQXJnpCCouHHBKuajcF-3" value="" style="rounded=0;html=1;jettySize=auto;orthogonalLoop=1;fontSize=11;endArrow=block;endFill=0;endSize=8;strokeWidth=1;shadow=0;labelBackgroundColor=none;edgeStyle=orthogonalEdgeStyle;" edge="1" parent="WIyWlLk6GJQsqaUBKTNV-1">
          <mxGeometry relative="1" as="geometry">
            <mxPoint x="379.5" y="390" as="sourcePoint" />
            <mxPoint x="379.5" y="440" as="targetPoint" />
          </mxGeometry>
        </mxCell>
        <mxCell id="tXQXJnpCCouHHBKuajcF-4" value="Compares Letter to Selected word" style="rounded=1;whiteSpace=wrap;html=1;fontSize=12;glass=0;strokeWidth=1;shadow=0;" vertex="1" parent="WIyWlLk6GJQsqaUBKTNV-1">
          <mxGeometry x="320" y="440" width="120" height="40" as="geometry" />
        </mxCell>
        <mxCell id="tXQXJnpCCouHHBKuajcF-5" value="" style="rounded=0;html=1;jettySize=auto;orthogonalLoop=1;fontSize=11;endArrow=block;endFill=0;endSize=8;strokeWidth=1;shadow=0;labelBackgroundColor=none;edgeStyle=orthogonalEdgeStyle;" edge="1" parent="WIyWlLk6GJQsqaUBKTNV-1">
          <mxGeometry relative="1" as="geometry">
            <mxPoint x="379.5" y="480" as="sourcePoint" />
            <mxPoint x="379.5" y="530" as="targetPoint" />
          </mxGeometry>
        </mxCell>
        <mxCell id="tXQXJnpCCouHHBKuajcF-6" value="Do letters match?" style="rhombus;whiteSpace=wrap;html=1;" vertex="1" parent="WIyWlLk6GJQsqaUBKTNV-1">
          <mxGeometry x="340" y="530" width="80" height="80" as="geometry" />
        </mxCell>
        <mxCell id="tXQXJnpCCouHHBKuajcF-7" value="" style="rounded=0;html=1;jettySize=auto;orthogonalLoop=1;fontSize=11;endArrow=block;endFill=0;endSize=8;strokeWidth=1;shadow=0;labelBackgroundColor=none;edgeStyle=orthogonalEdgeStyle;" edge="1" parent="WIyWlLk6GJQsqaUBKTNV-1" target="tXQXJnpCCouHHBKuajcF-10">
          <mxGeometry relative="1" as="geometry">
            <mxPoint x="340" y="570" as="sourcePoint" />
            <mxPoint x="340" y="620" as="targetPoint" />
          </mxGeometry>
        </mxCell>
        <mxCell id="tXQXJnpCCouHHBKuajcF-11" value="No" style="edgeLabel;html=1;align=center;verticalAlign=middle;resizable=0;points=[];" vertex="1" connectable="0" parent="tXQXJnpCCouHHBKuajcF-7">
          <mxGeometry x="-0.3102" y="-1" relative="1" as="geometry">
            <mxPoint as="offset" />
          </mxGeometry>
        </mxCell>
        <mxCell id="tXQXJnpCCouHHBKuajcF-8" value="" style="rounded=0;html=1;jettySize=auto;orthogonalLoop=1;fontSize=11;endArrow=block;endFill=0;endSize=8;strokeWidth=1;shadow=0;labelBackgroundColor=none;edgeStyle=orthogonalEdgeStyle;entryX=0;entryY=0.5;entryDx=0;entryDy=0;" edge="1" parent="WIyWlLk6GJQsqaUBKTNV-1" target="tXQXJnpCCouHHBKuajcF-9">
          <mxGeometry relative="1" as="geometry">
            <mxPoint x="420" y="570" as="sourcePoint" />
            <mxPoint x="450" y="570" as="targetPoint" />
          </mxGeometry>
        </mxCell>
        <mxCell id="tXQXJnpCCouHHBKuajcF-13" value="Yes" style="edgeLabel;html=1;align=center;verticalAlign=middle;resizable=0;points=[];" vertex="1" connectable="0" parent="tXQXJnpCCouHHBKuajcF-8">
          <mxGeometry y="-1" relative="1" as="geometry">
            <mxPoint as="offset" />
          </mxGeometry>
        </mxCell>
        <mxCell id="tXQXJnpCCouHHBKuajcF-9" value="Add letter to place holder" style="rounded=1;whiteSpace=wrap;html=1;fontSize=12;glass=0;strokeWidth=1;shadow=0;" vertex="1" parent="WIyWlLk6GJQsqaUBKTNV-1">
          <mxGeometry x="480" y="550" width="120" height="40" as="geometry" />
        </mxCell>
        <mxCell id="tXQXJnpCCouHHBKuajcF-10" value="Add a hang man part" style="rounded=1;whiteSpace=wrap;html=1;fontSize=12;glass=0;strokeWidth=1;shadow=0;" vertex="1" parent="WIyWlLk6GJQsqaUBKTNV-1">
          <mxGeometry x="160" y="550" width="120" height="40" as="geometry" />
        </mxCell>
        <mxCell id="tXQXJnpCCouHHBKuajcF-14" value="" style="rounded=0;html=1;jettySize=auto;orthogonalLoop=1;fontSize=11;endArrow=block;endFill=0;endSize=8;strokeWidth=1;shadow=0;labelBackgroundColor=none;edgeStyle=orthogonalEdgeStyle;entryX=0.5;entryY=0;entryDx=0;entryDy=0;" edge="1" parent="WIyWlLk6GJQsqaUBKTNV-1" target="tXQXJnpCCouHHBKuajcF-16">
          <mxGeometry relative="1" as="geometry">
            <mxPoint x="219.5" y="590" as="sourcePoint" />
            <mxPoint x="219.5" y="640" as="targetPoint" />
            <Array as="points">
              <mxPoint x="220" y="610" />
              <mxPoint x="220" y="610" />
            </Array>
          </mxGeometry>
        </mxCell>
        <mxCell id="tXQXJnpCCouHHBKuajcF-15" value="" style="rounded=0;html=1;jettySize=auto;orthogonalLoop=1;fontSize=11;endArrow=block;endFill=0;endSize=8;strokeWidth=1;shadow=0;labelBackgroundColor=none;edgeStyle=orthogonalEdgeStyle;entryX=0.5;entryY=0;entryDx=0;entryDy=0;" edge="1" parent="WIyWlLk6GJQsqaUBKTNV-1" target="tXQXJnpCCouHHBKuajcF-17">
          <mxGeometry relative="1" as="geometry">
            <mxPoint x="539.5" y="590" as="sourcePoint" />
            <mxPoint x="539.5" y="640" as="targetPoint" />
          </mxGeometry>
        </mxCell>
        <mxCell id="tXQXJnpCCouHHBKuajcF-16" value="Did the hang man hang?" style="rhombus;whiteSpace=wrap;html=1;" vertex="1" parent="WIyWlLk6GJQsqaUBKTNV-1">
          <mxGeometry x="180" y="635" width="80" height="80" as="geometry" />
        </mxCell>
        <mxCell id="tXQXJnpCCouHHBKuajcF-17" value="Is the word complete?" style="rhombus;whiteSpace=wrap;html=1;" vertex="1" parent="WIyWlLk6GJQsqaUBKTNV-1">
          <mxGeometry x="500" y="635" width="80" height="80" as="geometry" />
        </mxCell>
        <mxCell id="tXQXJnpCCouHHBKuajcF-19" value="End Game" style="rounded=1;whiteSpace=wrap;html=1;fontSize=12;glass=0;strokeWidth=1;shadow=0;" vertex="1" parent="WIyWlLk6GJQsqaUBKTNV-1">
          <mxGeometry x="320" y="655" width="120" height="40" as="geometry" />
        </mxCell>
        <mxCell id="tXQXJnpCCouHHBKuajcF-20" value="" style="rounded=0;html=1;jettySize=auto;orthogonalLoop=1;fontSize=11;endArrow=block;endFill=0;endSize=8;strokeWidth=1;shadow=0;labelBackgroundColor=none;edgeStyle=orthogonalEdgeStyle;entryX=0;entryY=0.5;entryDx=0;entryDy=0;" edge="1" parent="WIyWlLk6GJQsqaUBKTNV-1" target="WIyWlLk6GJQsqaUBKTNV-12">
          <mxGeometry relative="1" as="geometry">
            <mxPoint x="180" y="675" as="sourcePoint" />
            <mxPoint x="180.5" y="720" as="targetPoint" />
            <Array as="points">
              <mxPoint x="140" y="675" />
              <mxPoint x="140" y="370" />
            </Array>
          </mxGeometry>
        </mxCell>
        <mxCell id="tXQXJnpCCouHHBKuajcF-26" value="No" style="edgeLabel;html=1;align=center;verticalAlign=middle;resizable=0;points=[];" vertex="1" connectable="0" parent="tXQXJnpCCouHHBKuajcF-20">
          <mxGeometry x="-0.2724" y="3" relative="1" as="geometry">
            <mxPoint as="offset" />
          </mxGeometry>
        </mxCell>
        <mxCell id="tXQXJnpCCouHHBKuajcF-21" value="" style="rounded=0;html=1;jettySize=auto;orthogonalLoop=1;fontSize=11;endArrow=block;endFill=0;endSize=8;strokeWidth=1;shadow=0;labelBackgroundColor=none;edgeStyle=orthogonalEdgeStyle;entryX=0;entryY=0.5;entryDx=0;entryDy=0;" edge="1" parent="WIyWlLk6GJQsqaUBKTNV-1" target="tXQXJnpCCouHHBKuajcF-19">
          <mxGeometry relative="1" as="geometry">
            <mxPoint x="260" y="675" as="sourcePoint" />
            <mxPoint x="260.5" y="720" as="targetPoint" />
            <Array as="points">
              <mxPoint x="320" y="675" />
            </Array>
          </mxGeometry>
        </mxCell>
        <mxCell id="tXQXJnpCCouHHBKuajcF-25" value="Yes" style="edgeLabel;html=1;align=center;verticalAlign=middle;resizable=0;points=[];" vertex="1" connectable="0" parent="tXQXJnpCCouHHBKuajcF-21">
          <mxGeometry x="-0.0333" y="2" relative="1" as="geometry">
            <mxPoint as="offset" />
          </mxGeometry>
        </mxCell>
        <mxCell id="tXQXJnpCCouHHBKuajcF-23" value="" style="rounded=0;html=1;jettySize=auto;orthogonalLoop=1;fontSize=11;endArrow=block;endFill=0;endSize=8;strokeWidth=1;shadow=0;labelBackgroundColor=none;edgeStyle=orthogonalEdgeStyle;entryX=1;entryY=0.5;entryDx=0;entryDy=0;" edge="1" parent="WIyWlLk6GJQsqaUBKTNV-1" target="tXQXJnpCCouHHBKuajcF-19">
          <mxGeometry relative="1" as="geometry">
            <mxPoint x="500" y="675" as="sourcePoint" />
            <mxPoint x="500" y="725" as="targetPoint" />
          </mxGeometry>
        </mxCell>
        <mxCell id="tXQXJnpCCouHHBKuajcF-24" value="Yes" style="edgeLabel;html=1;align=center;verticalAlign=middle;resizable=0;points=[];" vertex="1" connectable="0" parent="tXQXJnpCCouHHBKuajcF-23">
          <mxGeometry x="-0.1732" y="1" relative="1" as="geometry">
            <mxPoint as="offset" />
          </mxGeometry>
        </mxCell>
        <mxCell id="tXQXJnpCCouHHBKuajcF-27" value="" style="rounded=0;html=1;jettySize=auto;orthogonalLoop=1;fontSize=11;endArrow=block;endFill=0;endSize=8;strokeWidth=1;shadow=0;labelBackgroundColor=none;edgeStyle=orthogonalEdgeStyle;entryX=1;entryY=0.5;entryDx=0;entryDy=0;" edge="1" parent="WIyWlLk6GJQsqaUBKTNV-1" target="WIyWlLk6GJQsqaUBKTNV-12">
          <mxGeometry relative="1" as="geometry">
            <mxPoint x="580" y="675" as="sourcePoint" />
            <mxPoint x="580" y="725" as="targetPoint" />
            <Array as="points">
              <mxPoint x="580" y="676" />
              <mxPoint x="630" y="676" />
              <mxPoint x="630" y="370" />
            </Array>
          </mxGeometry>
        </mxCell>
        <mxCell id="tXQXJnpCCouHHBKuajcF-28" value="No" style="edgeLabel;html=1;align=center;verticalAlign=middle;resizable=0;points=[];" vertex="1" connectable="0" parent="tXQXJnpCCouHHBKuajcF-27">
          <mxGeometry x="-0.2797" y="-3" relative="1" as="geometry">
            <mxPoint as="offset" />
          </mxGeometry>
        </mxCell>
      </root>
    </mxGraphModel>
  </diagram>
</mxfile>
